<svg height="64" viewBox="0 0 16.933334 16.933334" width="64" xmlns="http://www.w3.org/2000/svg" xmlns:xlink="http://www.w3.org/1999/xlink"><linearGradient id="a" gradientUnits="userSpaceOnUse" x1="38.868401" x2="37.752998" y1="34.368401" y2="62.398499"><stop offset=".0949776" stop-color="#4c4c4c"/><stop offset=".35369" stop-color="#313131"/><stop offset="1" stop-color="#2c2c2c"/></linearGradient><linearGradient id="b" gradientUnits="userSpaceOnUse" x1="40.25" x2="57.522598" y1="36.25" y2="62.724602"><stop offset="0" stop-color="#d5d5d5"/><stop offset=".812418" stop-color="#c6c6c6"/><stop offset="1" stop-color="#2c2c2c"/></linearGradient><linearGradient id="c" gradientUnits="userSpaceOnUse" x1="23.25" x2="23.25" y1="4.25" y2="42.25"><stop offset="0" stop-color="#d5d5d5"/><stop offset="1" stop-color="#c6c6c6"/></linearGradient><linearGradient id="d" gradientUnits="userSpaceOnUse" x1="23.25" x2="23.25" y1="1.25" y2="45.25"><stop offset="0" stop-color="#e1e1e1"/><stop offset=".5" stop-color="#727272"/><stop offset="1" stop-color="#313131"/></linearGradient><linearGradient id="e" gradientUnits="userSpaceOnUse" x1="23.25" x2="23.25" y1="4.25" y2="41.75"><stop offset="0" stop-color="#192730"/><stop offset="1" stop-color="#060809"/></linearGradient><linearGradient id="f" gradientUnits="userSpaceOnUse" x1="23" x2="23" y1="6" y2="40"><stop offset="0" stop-color="#101920"/><stop offset=".532401" stop-color="#4b6773"/><stop offset=".560582" stop-color="#151d20"/><stop offset=".619113" stop-color="#0d0f13"/><stop offset=".649462" stop-color="#856954"/><stop offset="1" stop-color="#3b302a"/></linearGradient><linearGradient id="g" gradientUnits="userSpaceOnUse" x1="23.307109" x2="23.307109" y1="17.25" y2="34.25"><stop offset="0" stop-color="#121c22"/><stop offset="1" stop-color="#0c1113"/></linearGradient><linearGradient id="h" gradientUnits="userSpaceOnUse" x1="23.25" x2="23.25" y1="12.75" y2="32.75"><stop offset="0" stop-color="#151c1e"/><stop offset="1" stop-color="#040606"/></linearGradient><linearGradient id="i" gradientUnits="userSpaceOnUse" x1="32.5" x2="34.5" y1="18.5" y2="20"><stop offset=".419687" stop-color="#c2c2c2"/><stop offset=".420312" stop-color="#848484"/></linearGradient><linearGradient id="j" gradientUnits="userSpaceOnUse" x1="22.5" x2="24.5" y1="11.5" y2="13"><stop offset=".419687" stop-color="#c2c2c2"/><stop offset=".420312" stop-color="#8d8d8d"/></linearGradient><linearGradient id="k" gradientUnits="userSpaceOnUse" x1="12.5" x2="14.5" y1="18.5" y2="20"><stop offset=".419687" stop-color="#c4c4c4"/><stop offset=".420312" stop-color="#838383"/></linearGradient><linearGradient id="l" gradientUnits="userSpaceOnUse" x1="16" x2="18" y1="31.5" y2="33"><stop offset=".419687" stop-color="#afafaf"/><stop offset=".420312" stop-color="#727272"/></linearGradient><linearGradient id="m" gradientUnits="userSpaceOnUse" x1="28.5" x2="30.5" y1="31.5" y2="33"><stop offset=".419687" stop-color="#aeaeae"/><stop offset=".420312" stop-color="#737373"/></linearGradient><linearGradient id="n" gradientUnits="userSpaceOnUse" x1="23.25" x2="23.25" y1="12.25" y2="32.25"><stop offset="0" stop-color="#8e8e8e"/><stop offset="1" stop-color="#727272"/></linearGradient><linearGradient id="o"><stop offset="0" stop-color="#c4c4c4"/><stop offset="1" stop-color="#aeaeae"/></linearGradient><linearGradient id="p" gradientUnits="userSpaceOnUse" x1="26.25" x2="26.25" xlink:href="#o" y1="22.25" y2="32.25"/><linearGradient id="q" gradientUnits="userSpaceOnUse" x1="28.25" x2="28.25" xlink:href="#o" y1="19.25" y2="24.25"/><linearGradient id="r" gradientUnits="userSpaceOnUse" x1="24.5" x2="24.5" xlink:href="#o" y1="12.25" y2="22.25"/><linearGradient id="s" gradientUnits="userSpaceOnUse" x1="18.25" x2="18.25" xlink:href="#o" y1="19.25" y2="22.25"/><linearGradient id="t" gradientUnits="userSpaceOnUse" x1="20" x2="20" xlink:href="#o" y1="22.25" y2="32.25"/><g fill="none" transform="scale(.26458334)"><path d="m36.6074 36.6827c1.3206-1.3206 3.4618-1.3206 4.7824 0l20.1259 20.1259c1.223 1.2229 1.223 3.2058 0 4.4288l-.5304-.1768c.9301-.9301.851-2.5172-.1767-3.5449l-20.4795-20.4795c-1.1253-1.1253-2.7916-1.2836-3.7217-.3535zm22.5171 26.5923-24.5547-24.5547zm-24.5547-24.5547 4.0752-4.0753zm26.9459 18.0883c1.223 1.2229 1.223 3.2058 0 4.4288s-3.2059 1.223-4.4288 0c1.0277 1.0277 2.7731.9486 3.8984-.1768.9301-.9301.851-2.5172-.1767-3.5449z" fill="url(#b)"/><path d="m36.6074 36.6827c1.1254-1.1254 2.9499-1.1254 4.0753 0l20.4794 20.4794c1.1254 1.1254 1.1254 2.9499 0 4.0753-1.1253 1.1253-2.9499 1.1253-4.0752 0l-20.4795-20.4795c-1.1253-1.1253-1.1253-2.9499 0-4.0752z" fill="url(#a)"/><path d="m43.75 23.25c0 11.321837-9.178163 20.5-20.5 20.5s-20.5-9.178163-20.5-20.5 9.178163-20.5 20.5-20.5 20.5 9.178163 20.5 20.5z" fill="url(#c)"/><path d="m23.25 1.25c-12.132498 0-22 9.867502-22 22s9.867502 22 22 22 22-9.867502 22-22-9.867502-22-22-22zm0 3c10.511177 0 19 8.488823 19 19s-8.488823 19-19 19-19-8.488823-19-19 8.488823-19 19-19z" fill="url(#d)"/><path d="m41.5 23c0 10.079197-8.170803 18.25-18.25 18.25s-18.25-8.170803-18.25-18.25 8.170803-18.25 18.25-18.25 18.25 8.170803 18.25 18.25z" fill="url(#e)"/><path d="m23.25 4.25c-10.349417 0-18.75 8.400583-18.75 18.75s8.400583 18.75 18.75 18.75 18.75-8.400583 18.75-18.75-8.400583-18.75-18.75-18.75zm0 1c9.808977 0 17.75 7.941023 17.75 17.75s-7.941023 17.75-17.75 17.75-17.75-7.941023-17.75-17.75 7.941023-17.75 17.75-17.75z" fill="#0c1113"/><path d="m40 23c0 9.388841-7.611159 17-17 17s-17-7.611159-17-17 7.611159-17 17-17 17 7.611159 17 17z" fill="url(#f)"/><path d="m9.3144789 17.25-3.22127 3c-.4078 3.1089-.3467 5.07 1 9.5 2.72576-.3182 4.5526001-.4498 7.7213001-.5 1.5005 1.068 1.8936 1.9104 4 4 7.8748-.7689 11.3058-.3158 17.2787 1 3.4651-4.3528 4.7505-7.1782 4-14l-3.2787.5-3.5 2.5-1.5-1h-1.5l-5 2.5-2-1.5-9.5-1.5z" fill="url(#g)"/><g fill="#0d1112"><path d="m34.25 19.75c0 .552285-.447715 1-1 1s-1-.447715-1-1 .447715-1 1-1 1 .447715 1 1z"/><path d="m24.25 12.75c0 .552285-.447715 1-1 1s-1-.447715-1-1 .447715-1 1-1 1 .447715 1 1z"/><path d="m14.25 19.75c0 .552285-.447715 1-1 1s-1-.447715-1-1 .447715-1 1-1 1 .447715 1 1z"/><path d="m17.75 32.75c0 .552285-.447715 1-1 1s-1-.447715-1-1 .447715-1 1-1 1 .447715 1 1z"/><path d="m30.25 32.75c0 .552285-.447715 1-1 1s-1-.447715-1-1 .447715-1 1-1 1 .447715 1 1z"/></g><path d="m20.75 19.75 2.5-7 2.5 7h7.5l-6 5 2 8-6-5-6.5 5 2-8-5.5-5z" fill="url(#h)"/><path d="m34.25 19.25c0 .552285-.447715 1-1 1s-1-.447715-1-1 .447715-1 1-1 1 .447715 1 1z" fill="url(#i)" transform="matrix(-.8130906 -.58213716 .58213716 -.8130906 49.079122 54.258055)"/><path d="m24.25 12.25c0 .552285-.447715 1-1 1s-1-.447715-1-1 .447715-1 1-1 1 .447715 1 1z" fill="url(#j)" transform="matrix(-.80117026 .59843647 -.59843647 -.80117026 49.208055 8.150688)"/><path d="m14.25 19.25c0 .552285-.447715 1-1 1s-1-.447715-1-1 .447715-1 1-1 1 .447715 1 1z" fill="url(#k)" transform="matrix(.35046567 .93657558 -.93657558 .35046567 26.63541 .093909)"/><path d="m17.75 32.25c0 .552285-.447715 1-1 1s-1-.447715-1-1 .447715-1 1-1 1 .447715 1 1z" fill="url(#l)"/><path d="m30.25 32.25c0 .552285-.447715 1-1 1s-1-.447715-1-1 .447715-1 1-1 1 .447715 1 1z" fill="url(#m)" transform="matrix(.36782919 -.92989337 .92989337 .36782919 -11.498065 47.58689)"/><path d="m20.75 19.25 2.5-7 2.5 7h7.5l-6 5 2 8-6-5-6.5 5 2-8-5.5-5z" fill="url(#n)"/><path d="m29.25 32.25-6-5v-5z" fill="url(#p)"/><path d="m27.25 24.25-4-2 10-3z" fill="url(#q)"/><path d="m25.75 19.25-2.5 3v-10z" fill="url(#r)"/><path d="m20.75 19.25 2.5 3-10-3z" fill="url(#s)"/><path d="m18.75 24.25 4.5-2-6.5 10z" fill="url(#t)"/></g></svg>